<svg width="56" height="56" viewBox="0 0 56 56" fill="none" xmlns="http://www.w3.org/2000/svg">
<path d="M28 56C12.536 56 -2.71876e-06 43.464 -1.36686e-06 28C-1.49563e-08 12.536 12.536 3.82965e-06 28 5.18156e-06C43.464 6.53346e-06 56 12.536 56 28C56 43.464 43.464 56 28 56ZM28 51.8C41.1444 51.8 51.8 41.1444 51.8 28C51.8 14.8556 41.1444 4.2 28 4.2C14.8556 4.2 4.2 14.8556 4.2 28C4.2 41.1444 14.8556 51.8 28 51.8ZM28.9883 40.4514L28.7849 40.6869C28.0394 41.4324 26.8727 41.5002 26.0506 40.8902L25.8151 40.6869L14.6128 29.4846C13.8671 28.7389 13.7994 27.5721 14.4097 26.75L14.6131 26.5145L25.8173 15.3145C26.6376 14.4945 27.9672 14.4948 28.7872 15.315C29.5326 16.0607 29.6001 17.2274 28.99 18.0494L28.7866 18.2849L21.1652 25.9028L39.902 25.902C40.9651 25.902 41.8437 26.692 41.9828 27.717L42.002 28.002C42.002 29.0651 41.2119 29.9437 40.1869 30.0828L39.902 30.102L21.1708 30.1028L28.7849 37.717C29.5305 38.4626 29.5982 39.6293 28.9883 40.4514L28.7849 40.6869L28.9883 40.4514Z" fill="#E4572E"/>
</svg>
