<svg width="38" height="38" viewBox="0 0 38 38" fill="none" xmlns="http://www.w3.org/2000/svg">
<path d="M19 6.10352e-05C29.4934 6.10352e-05 38 8.50665 38 19.0001C38 29.4935 29.4934 38.0001 19 38.0001C8.50659 38.0001 0 29.4935 0 19.0001C0 8.50665 8.50659 6.10352e-05 19 6.10352e-05ZM19 2.37506C9.81827 2.37506 2.375 9.81833 2.375 19.0001C2.375 28.1818 9.81827 35.6251 19 35.6251C28.1817 35.6251 35.625 28.1818 35.625 19.0001C35.625 9.81833 28.1817 2.37506 19 2.37506ZM27.2022 12.9354C27.6659 13.3991 27.6659 14.151 27.2022 14.6148L16.7522 25.0648C16.2884 25.5285 15.5366 25.5285 15.0728 25.0648L10.7978 20.7898C10.3341 20.326 10.3341 19.5741 10.7978 19.1104C11.2616 18.6466 12.0134 18.6466 12.4772 19.1104L15.9125 22.5457L25.5228 12.9354C25.9866 12.4716 26.7384 12.4716 27.2022 12.9354Z" fill="#DE611F"/>
</svg>
