<svg width="48" height="48" viewBox="0 0 48 48" fill="none" xmlns="http://www.w3.org/2000/svg">
<path d="M34.1316 13C36.268 13 38 14.7237 38 16.85V31.15C38 33.2763 36.268 35 34.1316 35H13.8684C11.732 35 10 33.2763 10 31.15V16.85C10 14.7237 11.732 13 13.8684 13H34.1316ZM36.1579 19.8574L24.4439 26.2699C24.1982 26.4043 23.9062 26.4193 23.6503 26.3147L23.5561 26.2699L11.8421 19.8574V31.15C11.8421 32.2638 12.7493 33.1667 13.8684 33.1667H34.1316C35.2507 33.1667 36.1579 32.2638 36.1579 31.15V19.8574ZM34.1316 14.8333H13.8684C12.7493 14.8333 11.8421 15.7362 11.8421 16.85V17.7659L24 24.4205L36.1579 17.7652V16.85C36.1579 15.7362 35.2507 14.8333 34.1316 14.8333Z" fill="#E4572E"/>
<circle cx="24" cy="24" r="23" stroke="#E4572E" stroke-width="2"/>
</svg>
