<svg width="30" height="22" viewBox="0 0 30 22" fill="none" xmlns="http://www.w3.org/2000/svg">
<path d="M1.5 18.8571H28.5C29.3284 18.8571 30 19.5607 30 20.4286C30 21.2345 29.4209 21.8987 28.6749 21.9894L28.5 22H1.5C0.671573 22 0 21.2964 0 20.4286C0 19.6227 0.57906 18.9585 1.32507 18.8677L1.5 18.8571H28.5H1.5ZM1.49982 9.42857L28.4998 9.42517C29.3282 9.42506 30 10.1285 30 10.9964C30 11.8023 29.4211 12.4666 28.6751 12.5574L28.5002 12.568L1.50018 12.5714C0.671754 12.5715 0 11.8681 0 11.0002C0 10.1943 0.578905 9.53003 1.32489 9.43917L1.49982 9.42857L28.4998 9.42517L1.49982 9.42857ZM1.5 0H28.5C29.3284 0 30 0.703552 30 1.57143C30 2.37731 29.4209 3.04151 28.6749 3.13228L28.5 3.14286H1.5C0.671573 3.14286 0 2.4393 0 1.57143C0 0.765544 0.57906 0.101346 1.32507 0.0105721L1.5 0H28.5H1.5Z" fill="#212121"/>
</svg>
