<svg width="48" height="48" viewBox="0 0 48 48" fill="none" xmlns="http://www.w3.org/2000/svg">
<path d="M26 12C26 13.1046 25.1046 14 24 14C22.8954 14 22 13.1046 22 12C22 10.8954 22.8954 10 24 10C25.1046 10 26 10.8954 26 12ZM22.5 19.5L22.5 34.5C22.5 35.3284 23.1716 36 24 36C24.8284 36 25.5 35.3284 25.5 34.5L25.5 19.5C25.5 18.6716 24.8284 18 24 18C23.1716 18 22.5 18.6716 22.5 19.5ZM0 24C0 10.7452 10.7452 0 24 0C37.2548 0 48 10.7452 48 24C48 37.2548 37.2548 48 24 48C10.7452 48 0 37.2548 0 24ZM24 3C12.402 3 3 12.402 3 24C3 35.598 12.402 45 24 45C35.598 45 45 35.598 45 24C45 12.402 35.598 3 24 3Z" fill="#E4572E"/>
</svg>
