<svg width="48" height="48" viewBox="0 0 48 48" fill="none" xmlns="http://www.w3.org/2000/svg">
<path d="M24.5033 18.769C22.2617 18.769 20.4445 20.5838 20.4445 22.8224C20.4445 25.061 22.2617 26.8758 24.5033 26.8758C26.7449 26.8758 28.5621 25.061 28.5621 22.8224C28.5621 20.5838 26.7449 18.769 24.5033 18.769ZM22.1357 22.8224C22.1357 21.5165 23.1957 20.4579 24.5033 20.4579C25.8109 20.4579 26.8709 21.5165 26.8709 22.8224C26.8709 24.1283 25.8109 25.1869 24.5033 25.1869C23.1957 25.1869 22.1357 24.1283 22.1357 22.8224ZM33.2941 29.9158L26.4696 37.1507C25.4013 38.2831 23.5986 38.2831 22.5304 37.1507L15.7059 29.9158H15.7316L15.7202 29.9024L15.7059 29.8855C15.2701 29.3695 14.879 28.8147 14.5385 28.2269C13.56 26.5377 13 24.5765 13 22.4846C13 16.1418 18.1487 11 24.5 11C30.8513 11 36 16.1418 36 22.4846C36 24.5765 35.44 26.5377 34.4615 28.2269C34.121 28.8147 33.7299 29.3695 33.2941 29.8855L33.2798 29.9024L33.2684 29.9158H33.2941ZM31.9795 28.8224C33.4333 27.1133 34.3088 24.9032 34.3088 22.4846C34.3088 17.0746 29.9173 12.6889 24.5 12.6889C19.0827 12.6889 14.6912 17.0746 14.6912 22.4846C14.6912 24.9032 15.5667 27.1133 17.0205 28.8224L17.2288 29.0672L23.7614 35.9926C24.162 36.4172 24.838 36.4173 25.2386 35.9926L31.7713 29.0672L31.9795 28.8224Z" fill="#E4572E"/>
<path d="M47 24C47 36.7025 36.7025 47 24 47C11.2975 47 1 36.7025 1 24C1 11.2975 11.2975 1 24 1C36.7025 1 47 11.2975 47 24Z" stroke="#E4572E" stroke-width="2"/>
</svg>
