<svg width="48" height="48" viewBox="0 0 48 48" fill="none" xmlns="http://www.w3.org/2000/svg">
<path d="M47 24C47 36.7025 36.7025 47 24 47C11.2975 47 1 36.7025 1 24C1 11.2975 11.2975 1 24 1C36.7025 1 47 11.2975 47 24Z" stroke="#E4572E" stroke-width="2"/>
<path d="M11.494 19.228H13.636L17.308 25.852L18.514 28.354H18.586C18.538 27.742 18.478 27.088 18.406 26.392C18.346 25.684 18.316 25 18.316 24.34V19.228H20.314V31H18.172L14.5 24.376L13.294 21.874H13.222C13.27 22.498 13.324 23.152 13.384 23.836C13.456 24.52 13.492 25.192 13.492 25.852V31H11.494V19.228ZM23.3065 19.228H25.3945V31H23.3065V19.228ZM28.3866 19.228H32.0946C32.7426 19.228 33.3426 19.288 33.8946 19.408C34.4586 19.528 34.9446 19.732 35.3526 20.02C35.7606 20.308 36.0786 20.686 36.3066 21.154C36.5346 21.61 36.6486 22.18 36.6486 22.864C36.6486 23.512 36.5346 24.076 36.3066 24.556C36.0786 25.036 35.7606 25.438 35.3526 25.762C34.9566 26.074 34.4826 26.308 33.9306 26.464C33.3906 26.608 32.8026 26.68 32.1666 26.68H30.4746V31H28.3866V19.228ZM32.0046 25.006C33.7326 25.006 34.5966 24.292 34.5966 22.864C34.5966 22.12 34.3686 21.61 33.9126 21.334C33.4686 21.046 32.8086 20.902 31.9326 20.902H30.4746V25.006H32.0046Z" fill="#E4572E"/>
</svg>
