<svg width="48" height="48" viewBox="0 0 48 48" fill="none" xmlns="http://www.w3.org/2000/svg">
<path d="M15.1783 17.4127C14.7742 14.6644 16.6546 12.1899 19.5295 11.283C20.5883 10.949 21.7162 11.5222 22.1047 12.5916L23.0263 15.1292C23.3297 15.9644 23.1111 16.9059 22.4739 17.5088L19.7325 20.1023C19.458 20.362 19.3361 20.7531 19.4108 21.1295L19.4352 21.2438C19.4503 21.312 19.4726 21.4086 19.5027 21.5293C19.5628 21.7705 19.6542 22.1098 19.7823 22.5136C20.0371 23.3171 20.4434 24.3978 21.0478 25.4777C21.6523 26.5576 22.3565 27.4608 22.9038 28.0901C23.1789 28.4065 23.418 28.6578 23.5905 28.8321C23.6768 28.9193 23.7467 28.9875 23.7965 29.0352L23.8816 29.1153C24.1603 29.3702 24.5482 29.4556 24.9035 29.3403L28.4518 28.1883C29.2767 27.9206 30.1765 28.1961 30.7261 28.8846L32.4047 30.9878C33.1034 31.8632 33.0213 33.1482 32.2172 33.9214C30.0175 36.0367 26.9931 36.47 24.8879 34.7253C22.8584 33.0433 20.4699 30.5437 18.4747 27.0059C16.4747 23.4598 15.5692 20.0706 15.1783 17.4127ZM21.6324 21.2733L23.9076 19.1209C25.182 17.9151 25.6192 16.0321 25.0125 14.3617L24.0908 11.8242C23.3092 9.67239 21.0396 8.51905 18.9092 9.19106C15.3405 10.3168 12.475 13.6176 13.0814 17.7408C13.5049 20.6203 14.4843 24.2814 16.6413 28.1059C18.7896 31.9149 21.3644 34.6114 23.5594 36.4306C26.7142 39.0452 30.9279 38.1522 33.6636 35.5215C35.2873 33.9601 35.4531 31.3652 34.0422 29.5975L32.3635 27.4943C31.2644 26.1171 29.4647 25.5661 27.8151 26.1017L24.8703 27.0577C24.757 26.9376 24.6258 26.7941 24.4827 26.6295C23.9989 26.0731 23.3936 25.2932 22.8846 24.3839C22.3756 23.4745 22.0235 22.544 21.7982 21.8336C21.7316 21.6235 21.6766 21.4345 21.6324 21.2733Z" fill="#E4572E"/>
<circle cx="24" cy="24" r="23" stroke="#E4572E" stroke-width="2"/>
</svg>
